PathFileType	4	(X/Y/Z)	P:\Projects\LMB_grand_challenge_database\project_only\opensim\experimental_data\SixthCompetition/DM_ngait_og9_new.trc
DataRate	CameraRate	NumFrames	NumMarkers	Units	OrigDataRate	OrigDataStartFrame	OrigNumFrames
120	120	8	68	mm	120	230	369
Frame#	Time	Sternum			Neck			R_Shoulder			L_Shoulder			Xiphoid			Thoracic			R_Asis			L_Asis			R_Psis			L_Psis			Lumbar			R_Elbow			R_ElbowMedial			R_ShoulderAnterior			R_ShoulderPosterior			R_Wrist			R_Radius			R_Ulna			L_Elbow			L_ElbowMedial			L_ShoulderAnterior			L_ShoulderPosterior			L_Wrist			L_Ulna			L_Radius			L_Thigh_Superior			L_Thigh_Inferior			L_Thigh_Lateral			L_Knee_Lateral			L_Knee_Medial			L_Patella			L_Shank_Superior			L_Shank_Inferior			L_Shank_Lateral			L_Ankle_Lateral			L_Ankle_Medial			R_Thigh_Superior			R_Thigh_Inferior			R_Thigh_Lateral			R_Knee_Lateral			R_Knee_Medial			R_Patella			R_Shank_Superior			R_Shank_Inferior			R_Shank_Lateral			R_Ankle_Lateral			RankleMedial			R_Heel			R_Toe			R_Midfoot_Medial			R_Midfoot_Lateral			R_Hindfoot			R_Midfoot_Superior			R_ToeMedial			R_ToeLateral			L_Heel			L_Toe			L_Midfoot_Medial			L_Midfoot_Lateral			L_Hindfoot			L_Midfoot_Superior			L_ToeMedial			L_ToeLateral			Oglobal			Sacral			Xglobal			Yglobal			Zglobal			
		X1	Y1	Z1	X2	Y2	Z2	X3	Y3	Z3	X4	Y4	Z4	X5	Y5	Z5	X6	Y6	Z6	X7	Y7	Z7	X8	Y8	Z8	X9	Y9	Z9	X10	Y10	Z10	X11	Y11	Z11	X12	Y12	Z12	X13	Y13	Z13	X14	Y14	Z14	X15	Y15	Z15	X16	Y16	Z16	X17	Y17	Z17	X18	Y18	Z18	X19	Y19	Z19	X20	Y20	Z20	X21	Y21	Z21	X22	Y22	Z22	X23	Y23	Z23	X24	Y24	Z24	X25	Y25	Z25	X26	Y26	Z26	X27	Y27	Z27	X28	Y28	Z28	X29	Y29	Z29	X30	Y30	Z30	X31	Y31	Z31	X32	Y32	Z32	X33	Y33	Z33	X34	Y34	Z34	X35	Y35	Z35	X36	Y36	Z36	X37	Y37	Z37	X38	Y38	Z38	X39	Y39	Z39	X40	Y40	Z40	X41	Y41	Z41	X42	Y42	Z42	X43	Y43	Z43	X44	Y44	Z44	X45	Y45	Z45	X46	Y46	Z46	X47	Y47	Z47	X48	Y48	Z48	X49	Y49	Z49	X50	Y50	Z50	X51	Y51	Z51	X52	Y52	Z52	X53	Y53	Z53	X54	Y54	Z54	X55	Y55	Z55	X56	Y56	Z56	X57	Y57	Z57	X58	Y58	Z58	X59	Y59	Z59	X60	Y60	Z60	X61	Y61	Z61	X62	Y62	Z62	X63	Y63	Z63	X64	Y64	Z64	X65	Y65	Z65	X66	Y66	Z66	X67	Y67	Z67	X68	Y68	Z68	

231	4.341667	571.381	1371.09	139.248	413.943	1456.71	146.285	509.079	1407.69	312.15	478.136	1419.64	-26.4976	588.001	1207.06	143.595	322.674	1267.71	145.444	506.473	972.297	279.773	519.704	987.6420000000001	4.18513	309.793	1018.92	164.954	311.502	1016.88	85.9011	311.372	1067.39	131.286	442.927	1100.78	415.909	-0	0	0	-0	0	0	-0	0	0	524.274	834.231	402.797	534.453	847.04	361.841	477.224	832.2430000000001	402.319	554.237	1094.31	-119.501	-0	0	0	-0	0	0	-0	0	0	736.515	900.5359999999999	-83.5932	695.617	884.373	-99.8511	725.13	917.304	-40.6472	442.185	805.356	-20.0516	444.206	585.4829999999999	37.0165	502.255	673.0650000000001	54.9532	-0	0	0	-0	0	0	461.512	491.446	101.954	381.63	436.586	33.1165	287.959	180.663	42.5699	365.36	293.757	109.403	-0	0	0	-0	0	0	452.105	794.4059999999999	314.75	554.444	599.877	283.134	566.984	742.088	303.271	-0	0	0	-0	0	0	672.2569999999999	544.7190000000001	233.725	562.099	408.391	295.438	605.915	204.02	288.4	657.78	340.014	229.75	-0	0	0	-0	0	0	565.343	63.0354	223.547	855.067	101.362	286.685	794.908	71.9742	217.553	762.018	59.6739	329.443	657.807	40.4593	295.103	712.984	145.307	262.396	833.213	86.0038	237.552	809.013	77.925	325.371	187.791	64.485	100.38	486.676	53.3362	87.1908	407.73	32.401	142.395	392.412	31.7907	28.9442	285.126	28.2714	40.7641	351.77	118.474	90.0223	450.823	35.9616	131.704	447.208	36.0327	36.6526	-0	0	0	310.647	1017.9	125.427	-200	0	0	-0	0	200	-0	200	0	
232	4.35	579.55	1369.98	139.597	422.044	1455.75	146.322	516.951	1406.85	312.507	486.451	1418.78	-26.2707	596.01	1205.87	144.073	330.962	1266.73	145.798	514.628	971.086	279.694	527.706	986.814	4.51392	317.827	1017.86	165.157	319.451	1015.89	86.1528	319.426	1066.34	131.635	450.125	1100.19	416.337	-0	0	0	-0	0	0	-0	0	0	530.381	833.101	403.418	540.505	845.933	362.536	483.307	831.396	403.586	565.349	1093.85	-118.511	-0	0	0	-0	0	0	-0	0	0	749.237	902.003	-82.00879999999999	708.515	885.284	-97.7072	738.12	919.011	-39.1769	448.737	804.458	-19.6684	448.123	584.657	36.5223	507.475	671.605	54.0078	-0	0	0	-0	0	0	464.646	490.465	101.189	383.089	435.862	34.0569	288.898	181.081	42.5599	368.693	293.212	108.098	-0	0	0	-0	0	0	458.732	793.015	314.722	560.567	598.809	283.471	573.3	740.561	303.336	-0	0	0	-0	0	0	678.179	543.657	233.509	574.313	405.414	295.747	627.393	203.061	288.5	672.688	341.289	229.597	-0	0	0	-0	0	0	593.053	59.6799	223.629	881.1799999999999	111.383	284.431	821.889	79.3968	215.771	790.495	65.93559999999999	327.957	686.96	41.6504	294.503	737.6609999999999	149.379	261.234	859.21	94.99590000000001	234.917	836.582	85.8659	323.309	187.976	64.79349999999999	100.359	487.058	52.7719	87.9098	407.905	32.7485	142.451	392.624	32.1082	28.9958	285.247	28.419	40.686	352.281	118.91	90.0189	451.09	35.7543	131.611	447.289	35.8676	36.5739	-0	0	0	318.639	1016.87	125.655	-200	0	0	-0	0	200	-0	200	0	
233	4.358333	587.681	1368.7	140.057	430.22	1454.65	146.615	524.975	1405.96	312.936	495.065	1417.57	-25.8005	604.091	1204.59	144.539	338.973	1265.77	146.359	522.72	969.9640000000001	279.87	535.4160000000001	985.71	4.51408	325.767	1016.78	165.602	327.313	1014.88	86.504	327.343	1065.3	132.016	457.374	1099.53	416.773	-0	0	0	-0	0	0	-0	0	0	536.442	832.039	404.006	546.1799999999999	844.694	362.984	489.594	830.668	404.366	576.568	1093.09	-116.936	-0	0	0	-0	0	0	-0	0	0	761.74	903.207	-80.26049999999999	721.153	886.174	-95.559	751.043	920.723	-37.5979	454.99	803.796	-19.6803	452.076	583.908	35.9884	512.7089999999999	670.157	53.0921	-0	0	0	-0	0	0	468.044	489.185	100.811	385.872	435.494	34.1931	289.805	181.48	42.6099	369.785	293.699	108.06	-0	0	0	-0	0	0	465.103	791.615	314.632	566.888	597.306	283.61	579.7619999999999	738.955	303.056	-0	0	0	-0	0	0	685.064	542.452	233.694	586.482	402.852	296.429	648.4349999999999	202.87	288.638	686.974	342.641	228.996	-0	0	0	-0	0	0	619.198	57.4488	224.7	905.865	121.369	280.498	846.787	87.0818	212.809	818.073	71.6829	325.462	715.115	43.3238	293.652	759.838	152.687	260.059	883.968	104.325	231.684	863.028	93.8077	320.544	188.229	65.2586	100.294	487.06	52.8464	87.19750000000001	408.073	32.5703	142.339	392.785	32.1007	28.8836	285.233	28.5968	40.5558	352.919	119.02	89.9927	451.172	35.6062	131.527	447.422	35.8056	36.42	-0	0	0	326.54	1015.83	126.053	-200	0	0	-0	0	200	-0	200	0	
234	4.366667	595.934	1367.37	140.605	438.429	1453.48	146.964	533.2329999999999	1405.01	313.387	503.836	1416.15	-24.7691	612.1180000000001	1203.27	144.944	347.009	1264.76	146.91	530.583	969.024	280.341	543.433	984.366	4.68269	333.748	1015.66	165.782	335.4	1013.79	86.77070000000001	335.323	1064.22	132.105	464.555	1098.82	417.306	-0	0	0	-0	0	0	-0	0	0	542.635	830.91	404.644	552.157	843.394	363.436	495.88	829.784	405.002	587.595	1092.59	-115.736	-0	0	0	-0	0	0	-0	0	0	774.072	904.264	-78.76260000000001	733.586	886.797	-93.375	763.614	922.717	-35.4823	461.49	802.953	-19.619	456.439	583.298	35.9646	518.1130000000001	668.535	52.2238	-0	0	0	-0	0	0	471.565	488.086	100.417	388.854	435.234	34.1159	290.892	181.832	42.649	369.812	293.187	109.765	-0	0	0	-0	0	0	471.769	790.226	314.451	573.207	595.8099999999999	283.911	586.38	737.37	303.095	-0	0	0	-0	0	0	691.731	541.03	233.777	598.766	400.587	296.748	668.42	203.041	288.515	701.0940000000001	343.931	228.467	-0	0	0	-0	0	0	644.424	56.0906	225.275	929.187	131.437	276.704	870.4059999999999	94.91289999999999	209.749	844.278	77.60639999999999	322.754	742.158	45.4616	292.524	781.528	156.505	258.908	906.904	113.828	227.599	888.383	101.831	317.296	188.499	65.90430000000001	100.181	487.154	52.8147	87.05929999999999	408.23	32.5704	142.308	392.974	32.0889	28.848	285.307	28.8669	40.4824	353.647	119.255	89.8824	451.296	35.4124	131.492	447.526	35.689	36.388	-0	0	0	334.574	1014.73	126.276	-200	0	0	-0	0	200	-0	200	0	
235	4.375	604.158	1366.12	141.22	446.651	1452.3	147.318	541.279	1403.88	313.937	512.249	1415.34	-24.8591	620.299	1201.95	145.381	354.903	1263.77	147.576	539.412	967.749	280.19	551.479	983.338	4.92719	342.129	1014.28	166.37	343.566	1012.53	87.4092	343.645	1062.88	132.783	471.714	1098	418.026	-0	0	0	-0	0	0	-0	0	0	548.708	829.756	405.168	558.1609999999999	842.071	364.045	501.688	828.845	406.113	598.6319999999999	1091.98	-114.316	-0	0	0	-0	0	0	-0	0	0	786.21	904.962	-77.13339999999999	745.869	887.171	-91.14660000000001	775.845	923.148	-34.4741	468.082	802.194	-19.3477	460.873	582.492	35.7735	523.361	667.026	51.9162	-0	0	0	-0	0	0	475.117	486.765	100.062	391.93	434.891	34.2338	291.845	182.269	42.7287	372.405	292.585	109.678	-0	0	0	-0	0	0	478.458	788.985	314.369	579.974	594.504	284.366	593.213	735.801	303.185	-0	0	0	-0	0	0	698.399	540.0700000000001	234.047	610.896	398.679	296.765	687.657	203.402	288.615	714.524	345.21	227.931	-0	0	0	-0	0	0	668.288	55.4774	226.157	951.1180000000001	140.857	272.5	892.35	102.578	206.306	869.208	83.5766	319.689	767.779	47.9744	291.343	802.126	160.405	257.678	928.415	122.824	223.418	912.111	109.77	313.53	188.773	66.5946	100.15	487.286	52.7237	86.94070000000001	408.429	32.8583	142.349	393.174	32.1861	28.8895	285.41	29.0691	40.4335	354.241	119.624	89.7375	451.445	35.1891	131.426	447.72	35.5122	36.5001	-0	0	0	342.848	1013.4	126.89	-200	0	0	-0	0	200	-0	200	0	
236	4.383333	612.501	1364.89	141.888	454.854	1451.08	147.836	549.548	1402.8	314.71	520.783	1413.88	-23.9578	628.6559999999999	1200.67	145.811	363.139	1262.57	148.237	547.89	966.38	280.457	559.701	982.604	5.21504	350.445	1012.84	166.896	351.805	1011.12	87.9644	351.813	1061.44	133.418	479.122	1097.02	418.74	-0	0	0	-0	0	0	-0	0	0	554.898	828.437	405.821	564.105	840.525	364.454	507.783	827.859	406.897	609.395	1091.32	-113.111	-0	0	0	-0	0	0	-0	0	0	798.241	905.605	-75.34480000000001	757.96	887.289	-88.6806	788.252	924.067	-32.8579	474.72	801.399	-19.2656	465.52	581.74	35.6666	528.688	665.768	51.8208	-0	0	0	-0	0	0	477.814	483.72	101.897	395.249	434.569	34.3636	292.807	182.826	42.7684	374.85	292.11	109.453	-0	0	0	-0	0	0	485.523	787.797	314.495	587.333	593.0700000000001	284.495	600.533	734.232	303.072	-0	0	0	-0	0	0	705.475	539.306	233.926	622.713	397.006	296.552	706.188	204.089	288.884	727.717	346.585	227.405	-0	0	0	-0	0	0	690.501	55.3635	227.228	971.301	149.539	268.015	912.626	109.231	203.244	892.1609999999999	89.6241	317.039	791.285	50.8229	290.582	821.538	164.241	256.233	948.3200000000001	130.83	219.556	934.251	117.023	310.122	188.987	67.4842	100.083	487.427	52.4904	86.9768	408.48	33.0209	142.543	393.306	32.0799	29.0755	285.485	29.2947	40.467	354.925	119.925	89.6254	451.63	35.0131	131.482	447.675	35.4414	36.2439	-0	0	0	351.125	1011.98	127.43	-200	0	0	-0	0	200	-0	200	0	
237	4.391667	620.842	1363.55	142.578	463.291	1449.73	148.512	557.894	1401.45	315.39	529.478	1412.42	-22.9847	636.985	1199.39	146.278	371.441	1261.36	149.017	556.452	965.365	281.067	567.919	981.373	5.59009	358.794	1011.26	167.639	360.136	1009.55	88.7426	360.011	1059.89	134.066	486.536	1095.97	419.655	-0	0	0	-0	0	0	-0	0	0	561.019	826.994	406.479	570.121	838.86	365.16	513.927	826.595	407.718	620.126	1090.47	-111.605	-0	0	0	-0	0	0	-0	0	0	810.009	906.096	-73.76430000000001	769.864	887.241	-86.01519999999999	800.24	924.6660000000001	-31.2096	481.761	800.6900000000001	-19.1286	470.546	580.957	35.7016	534.184	664.595	51.8189	-0	0	0	-0	0	0	480.62	481.415	103.267	398.69	434.284	34.3461	293.931	183.582	42.8086	377.17	292.086	109.578	-0	0	0	-0	0	0	492.962	786.663	314.793	594.971	591.842	284.13	608.3920000000001	732.687	303.123	-0	0	0	-0	0	0	712.192	538.617	232.964	634.2190000000001	395.393	296.273	723.378	204.998	288.828	740.296	347.927	226.669	-0	0	0	-0	0	0	711.152	55.4356	228.308	989.946	157.299	263.63	931.283	115.148	200.15	913.377	95.4979	314.368	813.793	53.6002	290.392	839.77	167.983	254.555	966.597	137.574	215.742	954.628	123.915	306.565	189.373	68.4577	100.02	487.966	51.8576	87.059	408.718	33.3725	142.736	393.628	32.199	29.2586	285.653	29.5693	40.4365	355.745	120.401	89.544	451.711	34.7742	131.341	447.763	35.2533	36.2178	-0	0	0	359.465	1010.41	128.191	-200	0	0	-0	0	200	-0	200	0	
238	4.4	629.2430000000001	1362.24	143.332	471.558	1448.49	149.128	566.228	1400.07	316.178	538.264	1410.83	-21.8748	645.432	1198.23	146.783	379.681	1259.98	149.745	565.075	964.357	281.688	576.184	980.275	5.96795	367.216	1009.68	168.376	368.504	1007.94	89.5508	368.222	1058.31	134.763	493.893	1094.83	420.505	-0	0	0	-0	0	0	-0	0	0	567.314	825.526	407.148	576.028	837.189	365.507	520.256	825.318	408.714	630.7910000000001	1089.65	-110.077	-0	0	0	-0	0	0	-0	0	0	821.734	906.39	-72.00700000000001	781.194	886.4829999999999	-83.1559	812.162	925.3579999999999	-29.5613	488.946	800.0170000000001	-18.6839	475.68	580.17	35.9933	539.787	663.3819999999999	52.2656	-0	0	0	-0	0	0	484.264	479.438	103.657	402.372	434.05	34.4984	295.188	184.082	42.782	379.566	292.036	109.745	-0	0	0	-0	0	0	501.272	785.421	315.117	603.494	590.682	283.53	617.047	731.332	302.868	-0	0	0	-0	0	0	720.0549999999999	538.234	231.337	645.693	394.078	295.809	739.478	205.849	288.461	752.53	348.949	225.793	-0	0	0	-0	0	0	729.979	55.5764	229.259	1006.93	163.975	259.737	948.235	119.996	197.161	932.5700000000001	100.867	311.796	833.2430000000001	56.8364	289.389	856.331	171.118	252.586	983.215	143.397	212.254	973.03	130.332	303.448	189.778	69.54300000000001	99.96550000000001	488.137	51.6282	86.9085	408.931	33.653	142.999	393.916	32.0367	29.5171	285.878	29.8499	40.5649	356.485	120.709	89.3711	451.882	34.6148	131.394	447.827	35.1283	36.2142	-0	0	0	367.86	1008.81	128.963	-200	0	0	-0	0	200	-0	200	0	
